<svg xmlns="http://www.w3.org/2000/svg" width="231" height="230" viewBox="0 0 231 230" fill="none"><g clip-path="url(#clip0_3143_17020)"><path d="M115.502 2.34856C177.717 2.34856 228.151 52.7826 228.151 114.998C228.151 177.214 177.714 227.648 115.502 227.648C53.2891 227.648 2.84856 177.214 2.84856 115.002C2.84856 52.7891 53.2858 2.34856 115.502 2.34856ZM115.502 0C99.9777 0 84.9183 3.04046 70.736 9.03693C57.0409 14.8288 44.7426 23.1218 34.1822 33.6822C23.6218 44.2426 15.3288 56.5409 9.53693 70.236C3.54046 84.4151 0.5 99.4777 0.5 115.002C0.5 130.526 3.54046 145.585 9.53693 159.764C15.3288 173.459 23.6218 185.757 34.1822 196.318C44.7426 206.878 57.0409 215.171 70.736 220.963C84.9151 226.96 99.9777 230 115.502 230C131.026 230 146.085 226.96 160.264 220.963C173.959 215.171 186.257 206.878 196.818 196.318C207.378 185.757 215.671 173.459 221.463 159.764C227.46 145.585 230.5 130.526 230.5 115.002C230.5 99.4777 227.46 84.4183 221.463 70.2393C215.671 56.5442 207.378 44.2459 196.818 33.6855C186.257 23.1251 173.959 14.832 160.264 9.04018C146.085 3.04046 131.026 0 115.502 0Z" fill="#231F20"></path><path d="M52.0098 171.276C50.7007 170.867 46.1887 170.305 44.1163 172.043C43.4601 173.563 44.4346 174.765 45.0843 175.96C46.6012 177.705 48.979 180.355 50.4051 179.676C51.8344 178.998 53.1792 176.106 53.5203 173.047C53.5203 173.047 53.3156 171.685 52.0065 171.279L52.0098 171.276Z" fill="#231F20"></path><path d="M134.21 199.063C131.491 198.403 128.441 199.157 125.719 199.8L126.791 205.897C129.078 205.686 131.472 205.364 133.434 204.172C134.411 203.523 135.48 202.33 135.623 201.158C135.766 199.985 134.207 199.059 134.207 199.059L134.21 199.063Z" fill="#231F20"></path><path d="M99.4652 198.936C97.971 199.355 94.2029 202.035 94.2906 205.15C95.1644 206.222 96.8178 206.713 98.2731 207.106C99.829 207.206 102.067 207.603 103.042 206.339C103.243 204.491 103.25 202.253 102.087 200.693C101.505 199.621 100.631 198.939 99.4652 198.933V198.936Z" fill="#231F20"></path><path d="M143.478 88.1799C143.478 86.0165 142.754 83.5315 140.941 83.5315C139.262 83.5315 138.258 85.2921 138.258 89.0505C138.258 91.2301 138.972 93.5462 140.785 93.5462C142.598 93.5462 143.478 90.9637 143.478 88.1767V88.1799Z" fill="#231F20"></path><path d="M154.73 108.459C156.436 108.459 157.199 105.877 157.199 103.09C157.199 100.926 156.533 98.4415 154.873 98.4415C153.333 98.4415 152.414 100.205 152.414 103.96C152.414 106.14 153.067 108.456 154.73 108.456V108.459Z" fill="#231F20"></path><path d="M145.309 124.253C148.678 124.253 150.185 121.326 150.185 118.169C150.185 115.716 148.873 112.903 145.595 112.903C142.555 112.903 140.742 114.898 140.742 119.156C140.742 121.628 142.032 124.25 145.309 124.25V124.253Z" fill="#231F20"></path><path d="M159.477 113.131V118.224C161.77 118.412 162.91 117.464 162.91 115.505C162.91 115.239 162.887 114.956 162.8 114.557C162.449 112.978 160.812 113.131 159.477 113.131Z" fill="#231F20"></path><path d="M173.058 113.208V123.951H174.916C177.934 123.951 180.227 122.638 180.227 118.191C180.227 114.618 178.281 113.212 175.199 113.212H173.055L173.058 113.208Z" fill="#231F20"></path><path d="M20.3211 91.6134C20.8214 89.7326 21.679 88.3845 21.9388 87.41C22.137 86.6564 22.1045 86.0782 21.9616 85.435L27.539 86.939C27.5585 86.9455 27.578 86.9487 27.5682 86.9812C27.5585 87.0137 27.539 87.0072 27.513 87.0332C24.8071 88.1181 23.1959 89.5669 22.6015 91.792C21.9778 94.1438 22.3384 96.8627 26.2851 97.9282C29.6309 98.8312 31.2909 96.723 32.0152 93.9977C32.7396 91.269 32.2296 88.8783 31.1154 87.0332L31.1577 86.9422C34.2599 87.8128 35.6047 90.6648 34.2826 95.6511C33.2334 99.6011 30.469 103.424 25.145 101.989C20.4218 100.715 19.0608 96.3462 20.3179 91.6134H20.3211Z" fill="#231F20"></path><path d="M26.7382 78.5809C26.0788 78.2366 25.1401 78.477 24.25 79.1461L27.5373 72.7469C27.6998 73.9293 27.8979 74.4328 28.6288 74.8128L31.7927 76.463L35.3172 69.6025L32.1533 67.9523C31.4224 67.569 30.9026 67.7022 29.8502 68.2479L33.1375 61.8486C33.105 62.9661 33.4526 63.8789 34.1153 64.2232L43.0093 68.8651C43.6719 69.2094 44.6107 68.969 45.4975 68.2999L42.2102 74.6991C42.0478 73.5167 41.8529 73.0132 41.122 72.6299L37.1038 70.5347L33.5793 77.3953L37.5975 79.4905C38.3316 79.8738 38.8514 79.7438 39.9038 79.1949L36.6165 85.5941C36.6457 84.4767 36.2982 83.5639 35.6387 83.2196L26.7447 78.5777L26.7382 78.5809Z" fill="#231F20"></path><path d="M38.9686 56.7423C38.4261 56.229 37.4581 56.1998 36.4219 56.5994L41.3172 51.35C41.1547 52.5324 41.2067 53.0684 41.8077 53.6401L47.3331 58.8797C48.7396 60.2148 50.0617 59.773 51.8028 57.9052C53.2809 56.32 54.1644 54.397 52.7546 53.0619L47.2292 47.8223C46.6282 47.2538 46.0922 47.2343 44.9326 47.4715L49.8279 42.2189C49.4965 43.2876 49.5842 44.2588 50.1267 44.7753L54.8173 49.2223C57.6337 51.8925 57.5265 54.9102 53.1834 59.5684C50.052 62.9272 46.9011 64.2622 44.8806 62.3457L38.9718 56.7423H38.9686Z" fill="#231F20"></path><path d="M57.2836 38.5677C56.7703 37.7653 56.0427 37.3463 54.6719 37.5379C55.5132 37.1124 56.1726 36.7096 57.2023 36.0405C58.0437 35.498 61.2011 33.3021 62.5816 32.4023C67.5646 29.1669 69.9587 29.979 70.852 31.3791C71.82 32.896 71.4302 34.504 69.4584 36.3393C71.3489 35.7611 72.6191 35.5922 74.711 38.0934C75.5101 39.0452 76.3222 39.5357 77.7352 39.4122L74.24 41.6796C73.129 42.4007 72.6093 42.0629 71.1118 40.2601C69.4422 38.3013 68.4319 38.2818 65.4532 40.2146L63.9362 41.1988L65.9404 44.34C66.4959 45.2106 67.4834 45.438 68.7145 45.2658L62.4322 49.3425C62.9844 48.2868 63.1046 47.6988 62.5394 46.8088L57.2803 38.5677H57.2836ZM62.8512 39.4902L63.9622 38.7691C67.1586 36.6934 68.3734 35.2998 67.5484 34.0037C66.8077 32.8441 65.4564 32.948 62.8837 34.6177C61.1783 35.7254 60.8827 36.401 61.1329 36.7908L62.8545 39.487L62.8512 39.4902Z" fill="#231F20"></path><path d="M83.068 22.2057C84.8871 21.5463 86.4723 21.4846 87.4111 21.1435C88.1387 20.8804 88.5935 20.5198 89.0353 20.0358L90.994 25.5093C91.0005 25.5288 91.007 25.5483 90.9778 25.558C90.9453 25.5678 90.9388 25.5483 90.9031 25.5418C88.4733 23.9241 86.3749 23.4141 84.2245 24.197C81.9539 25.0221 79.9464 26.8736 81.3302 30.7489C82.5061 34.0298 85.1697 34.2052 87.8041 33.2469C90.4386 32.2886 92.092 30.502 92.9625 28.527L93.06 28.514C94.1222 31.5772 92.5695 34.3189 87.7554 36.0697C83.9386 37.4568 79.2447 37.3528 77.3737 32.123C75.717 27.4876 78.4944 23.8689 83.068 22.2057Z" fill="#231F20"></path><path d="M98.1654 20.4614C98.0842 19.7142 97.363 19.0613 96.3203 18.6877L103.428 17.9016C102.544 18.691 102.236 19.136 102.323 19.9611L102.716 23.5278L110.334 22.6832L109.944 19.1165C109.853 18.2882 109.457 17.9276 108.42 17.3462L115.528 16.5568C114.589 17.1513 114.027 17.9471 114.108 18.6942L115.206 28.7349C115.287 29.4788 116.005 30.135 117.051 30.5085L109.944 31.2979C110.831 30.5053 111.139 30.0635 111.048 29.2352L110.551 24.7005L102.931 25.545L103.428 30.0797C103.519 30.9081 103.915 31.2719 104.951 31.8501L97.8438 32.6394C98.7826 32.045 99.3445 31.2491 99.2633 30.502L98.1654 20.4614Z" fill="#231F20"></path><path d="M148.293 29.4268C147.173 33.8706 144.135 35.9203 137.954 34.3383C131.772 32.7564 130.07 29.495 131.187 25.0513C132.594 19.4673 136.814 18.9346 141.527 20.1398C146.24 21.3449 149.7 23.8396 148.293 29.4236V29.4268ZM144.236 28.3906C145.175 24.655 143.843 22.9528 141.004 22.2285C138.165 21.5008 136.187 22.3584 135.248 26.094C134.397 29.4755 135.42 31.4765 138.48 32.2561C141.54 33.039 143.385 31.7754 144.236 28.3906Z" fill="#231F20"></path><path d="M155.678 27.9033C156.013 27.2309 155.76 26.2889 155.084 25.4053L166.398 31.1159C167.233 31.5382 167.739 31.6779 168.431 31.8014L166.46 35.7741C166.213 33.9485 164.689 32.5225 161.983 31.1549C159.882 30.0927 159.167 30.3006 158.787 31.064L157.806 33.039C158.17 33.2469 158.797 33.5847 159.544 33.9615C161.503 34.949 162.321 35.1147 163.923 34.8581L161.993 38.7366C161.47 37.473 160.281 36.6024 158.641 35.7741C158.007 35.4525 157.364 35.1537 156.867 34.923L154.928 38.8211C154.593 39.4935 154.847 40.4355 155.522 41.3223L148.844 37.9505C149.955 37.9667 150.854 37.6029 151.186 36.9338L155.675 27.9033H155.678Z" fill="#231F20"></path><path d="M182.606 48.7936C183.213 48.2056 183.252 47.6306 182.252 46.5749C180.65 44.8858 178.571 44.6909 176.723 45.529L176.677 45.4802L180.718 41.5854C180.907 41.9882 181.212 42.547 181.68 43.0375L191.159 53.0294C191.626 53.5232 192.166 53.8545 192.555 54.0624L188.514 57.9604L188.469 57.9117C189.382 56.0894 189.281 53.9844 187.68 52.2953C186.679 51.2396 186.104 51.2526 185.493 51.8405L179.211 57.8955C178.672 58.4119 178.594 59.3864 178.935 60.4487L173.773 55.0077C174.813 55.3975 175.781 55.3617 176.32 54.8452L182.602 48.7903L182.606 48.7936Z" fill="#231F20"></path><path d="M195.043 60.6598C195.693 60.2895 196.002 59.3637 195.93 58.2495L199.458 64.5156C198.386 64.0088 197.863 63.9017 197.145 64.3109L194.046 66.0845L197.83 72.8022L200.926 71.0286C201.644 70.616 201.819 70.106 201.936 68.9204L205.467 75.1865C204.555 74.553 203.606 74.3484 202.96 74.7187L194.248 79.7049C193.601 80.0752 193.286 81.001 193.361 82.1152L189.83 75.8491C190.902 76.3559 191.428 76.4663 192.146 76.0538L196.083 73.7994L192.299 67.0818L188.362 69.3362C187.644 69.7454 187.468 70.2554 187.351 71.4443L183.82 65.1783C184.733 65.8117 185.682 66.0163 186.331 65.646L195.043 60.6565V60.6598Z" fill="#231F20"></path><path d="M206.242 82.5765C206.96 82.3751 207.483 81.5533 207.681 80.4521L211.589 94.5889C211.839 95.4952 212.076 95.9695 212.453 96.5704L207.957 97.8341C209.179 95.6024 209.221 93.569 208.243 90.0347C207.561 87.566 206.905 86.7734 205.817 87.0787L203.917 87.6115C204.05 88.2481 204.258 89.0667 204.452 89.7846C205.092 92.0975 205.736 93.7379 207.054 94.5825L202.77 95.7843C203.445 94.381 203.153 92.6432 202.516 90.3271C202.318 89.6092 202.071 88.8004 201.86 88.1864L199.281 88.9108C198.177 89.2194 197.979 90.0867 198.817 93.1174C199.811 96.7134 201.201 98.7176 203.686 99.7701L198.511 101.222C198.638 100.546 198.573 99.7896 198.125 98.1621L194.266 84.2169C195 85.055 195.87 85.4838 196.588 85.2824L206.239 82.57L206.242 82.5765Z" fill="#231F20"></path><path d="M115.852 6.52917C55.8838 6.52917 7.26562 55.1441 7.26562 115.115C7.26562 175.086 55.8806 223.701 115.852 223.701C175.823 223.701 224.438 175.086 224.438 115.115C224.438 55.1441 175.823 6.52917 115.852 6.52917ZM24.2383 157.873C26.5316 154.339 27.7465 152.147 28.7698 150.669C29.7962 149.187 32.0993 143.905 31.5114 142.466C30.9202 141.024 28.7145 140.862 26.3465 141.641C23.9817 142.421 21.4642 144.182 19.1254 145.28C18.3783 143.467 17.9495 141.726 17.2121 139.449C24.1831 139.42 30.8292 137.704 35.8447 133.527C36.9426 136.545 38.7487 141.362 39.8824 144.354C38.164 147.852 37.1992 149.421 36.9134 150.142C36.6275 150.863 34.5811 155.603 34.3992 158.442C36.267 158.783 38.9079 157.747 40.0058 157.282C41.1038 156.818 44.128 154.781 44.128 154.781L46.5188 158.91C40.2949 160.755 33.5416 162.951 28.7503 167.229C26.6486 164.503 26.0054 162.197 24.2383 157.87V157.873ZM46.4148 189.581C47.2886 187.995 48.8998 186.03 47.6655 183.935C45.2357 180.281 41.3864 174.801 38.3427 175.19C35.3022 175.58 35.3184 175.613 34.3992 176.552C32.8205 175.213 31.6251 173.729 30.3842 172.027C30.3842 172.027 29.0621 171.026 30.316 171.049C31.5731 171.075 43.9526 169.265 49.5852 165.501L50.5175 164.981C53.8373 168.898 56.8973 172.179 60.7466 175.847C56.54 181.369 53.9153 187.654 52.7394 194.388L46.4148 189.584V189.581ZM74.6171 127.105C74.4417 124.662 73.9122 122.437 73.0936 120.374C70.6184 116.262 67.9287 114.446 63.1601 111.032C69.0202 106.89 74.6171 104.928 80.3797 104.451C79.6033 110.259 80.3569 113.14 81.4809 117.022C82.0493 117.834 82.777 118.672 83.6962 119.579C86.0156 121.68 89.0365 122.733 92.064 121.229C93.9253 120.42 94.9778 118.913 95.6794 117.288C97.0925 110.782 94.7829 107.053 91.7749 101.813C98.7394 105.669 104.661 112.962 107.318 119.829C108.121 124.016 107.926 129.506 102.391 132.189C96.8553 134.872 95.1012 137.074 95.9783 138.26C96.6182 139.127 98.5055 138.383 100.149 139.202C100.568 139.39 100.939 139.67 101.234 140.066C101.432 140.3 101.617 140.576 101.79 140.901C102.251 142.879 102.358 145.088 103.635 146.836L103.518 147.3C103.518 147.3 95.0395 143.733 87.0453 146.42C79.0511 149.109 81.9324 149.642 74.0844 150.805C70.0304 151.013 66.6261 149.805 63.7221 147.81C63.6571 147.781 63.5954 147.755 63.5304 147.726C63.5304 147.726 63.3583 147.589 63.0594 147.336C60.1067 145.13 57.6899 142.125 55.6369 139.026C51.9338 131.809 51.6122 127.615 53.8438 119.134H54.0777C56.8453 127.745 62.9165 134.339 66.8048 134.638C70.6931 134.937 75.3447 134.04 74.6203 127.102L74.6171 127.105ZM131.077 87.4588C131.694 87.4588 132.308 87.41 132.925 87.3743V82.8299C133.227 82.8624 133.529 82.9143 133.831 82.9143C134.134 82.9143 134.436 82.8624 134.738 82.8299V94.3355C134.436 94.3031 134.134 94.2511 133.831 94.2511C133.529 94.2511 133.227 94.2998 132.925 94.3355V88.7159C132.308 88.6834 131.694 88.6314 131.077 88.6314C130.46 88.6314 129.842 88.6802 129.228 88.7159V94.3355C128.926 94.3031 128.624 94.2511 128.322 94.2511C128.02 94.2511 127.718 94.2998 127.416 94.3355V82.8299C127.718 82.8624 128.02 82.9143 128.322 82.9143C128.624 82.9143 128.926 82.8624 129.228 82.8299V87.3743C129.846 87.41 130.46 87.4588 131.077 87.4588ZM151.441 92.8088C151.418 93.0427 151.379 93.2961 151.379 93.53C151.379 93.7638 151.415 94.0172 151.441 94.2511H146.861V82.8266C147.163 82.8591 147.465 82.9111 147.767 82.9111C148.069 82.9111 148.371 82.8591 148.673 82.8266V93.0427C149.726 93.0427 150.619 92.9258 151.441 92.8088ZM154.942 97.4377C158.1 97.4377 159.029 100.81 159.042 103.408C159.052 106.679 157.392 109.463 154.679 109.463C152.233 109.463 150.58 107.284 150.58 103.473C150.58 100.137 152.185 97.4345 154.942 97.4345V97.4377ZM153.032 94.3355V82.8299C153.335 82.8624 153.637 82.9143 153.939 82.9143C154.241 82.9143 154.543 82.8624 154.845 82.8299V94.3355C154.543 94.3031 154.241 94.2511 153.939 94.2511C153.637 94.2511 153.335 94.2998 153.032 94.3355ZM172.013 86.049C172.013 84.1195 172.968 82.5278 174.803 82.5278C175.674 82.5278 176.447 82.9793 176.71 83.3334C176.567 83.8693 176.443 84.4248 176.323 84.9933H176.141C175.901 84.1032 175.44 83.5315 174.751 83.5315C173.796 83.5315 173.422 84.2202 173.422 85.1752C173.422 87.4393 177.093 87.0202 177.093 90.8631C177.093 93.0102 175.764 94.5532 173.893 94.5532C173.228 94.5532 172.516 94.3355 171.948 93.832C172.094 93.1272 172.224 92.4223 172.298 91.7011H172.529C172.711 92.8575 173.364 93.5462 174.196 93.5462C174.946 93.5462 175.609 92.9582 175.609 91.8018C175.609 89.1187 172.009 90.0899 172.009 86.049H172.013ZM172.526 97.7398V102.284C173.091 102.317 173.656 102.369 174.221 102.369C174.787 102.369 175.352 102.317 175.914 102.284V97.7398C176.19 97.7723 176.466 97.8243 176.745 97.8243C177.025 97.8243 177.298 97.7756 177.574 97.7398V109.249C177.298 109.216 177.022 109.164 176.745 109.164C176.469 109.164 176.19 109.213 175.914 109.249V103.629C175.349 103.597 174.783 103.545 174.221 103.545C173.66 103.545 173.091 103.597 172.526 103.629V109.249C172.25 109.216 171.97 109.164 171.698 109.164C171.425 109.164 171.142 109.213 170.866 109.249V97.7398C171.142 97.7723 171.418 97.8243 171.698 97.8243C171.977 97.8243 172.25 97.7756 172.526 97.7398ZM178.077 86.049C178.077 84.1195 179.032 82.5278 180.868 82.5278C181.735 82.5278 182.511 82.9793 182.778 83.3334C182.635 83.8693 182.511 84.4248 182.391 84.9933H182.209C181.969 84.1032 181.508 83.5315 180.819 83.5315C179.864 83.5315 179.49 84.2202 179.49 85.1752C179.49 87.4393 183.164 87.0202 183.164 90.8631C183.164 93.0102 181.836 94.5532 179.961 94.5532C179.299 94.5532 178.584 94.3355 178.016 93.832C178.162 93.1272 178.295 92.4223 178.366 91.7011H178.597C178.779 92.8575 179.432 93.5462 180.263 93.5462C181.014 93.5462 181.676 92.9582 181.676 91.8018C181.676 89.1187 178.077 90.0899 178.077 86.049ZM183.635 99.1821C182.96 99.0489 182.209 98.9125 181.079 98.9482V102.554H182.229C182.729 102.554 183.18 102.486 183.593 102.404C183.57 102.638 183.538 102.892 183.538 103.126C183.538 103.359 183.57 103.613 183.593 103.847C183.184 103.766 182.729 103.697 182.229 103.697H181.079V107.959C182.209 107.943 182.963 107.858 183.635 107.722C183.613 107.959 183.58 108.209 183.58 108.443C183.58 108.677 183.613 108.93 183.635 109.164H179.416V97.7398H183.635C183.613 97.9737 183.58 98.2271 183.58 98.461C183.58 98.6948 183.613 98.9482 183.635 99.1821ZM183.856 118.208C183.856 122.505 180.38 125.052 175.898 125.052H169.778V112.104H177.252C181.93 112.257 183.856 115.089 183.856 118.208ZM170.892 84.2721C170.155 84.1389 169.333 84.0058 168.102 84.0382V87.6439H169.359C169.901 87.6439 170.398 87.5757 170.846 87.4945C170.824 87.7284 170.785 87.9818 170.785 88.2156C170.785 88.4495 170.824 88.7029 170.846 88.9368C170.398 88.8523 169.901 88.7841 169.359 88.7841H168.102V93.046C169.333 93.0297 170.155 92.9453 170.892 92.8121C170.869 93.046 170.83 93.2993 170.83 93.5332C170.83 93.7671 170.866 94.0205 170.892 94.2543H166.289V82.8299H170.892C170.869 83.0637 170.83 83.3171 170.83 83.551C170.83 83.7849 170.866 84.0382 170.892 84.2721ZM169.589 97.7398C169.567 97.9737 169.534 98.2108 169.534 98.4447C169.534 98.6981 169.567 98.932 169.589 99.1659C168.936 99.0489 168.283 98.932 167.608 98.932V109.249C167.332 109.216 167.056 109.164 166.776 109.164C166.497 109.164 166.221 109.213 165.945 109.249V98.932C165.159 98.932 164.46 99.0489 163.882 99.1659C163.905 98.932 163.937 98.6948 163.937 98.4447C163.937 98.2108 163.905 97.9737 163.882 97.7398H169.586H169.589ZM166.763 123.967L167.614 125.146C166.958 125.107 166.305 125.052 165.626 125.052C164.947 125.052 164.314 125.107 163.658 125.146L161.056 121.154C160.728 120.641 160.117 119.767 159.636 119.046H159.484V125.146C158.935 125.107 158.389 125.052 157.843 125.052C157.298 125.052 156.752 125.107 156.203 125.146V112.104H160.861C161.887 112.104 163.486 112.065 164.402 112.484C165.649 113.053 166.305 113.91 166.305 115.203C166.305 117.068 164.928 118.243 162.894 118.624C164.096 120.449 165.451 122.197 166.763 123.967ZM164.35 94.3355L163.323 94.3193C161.92 92.1559 160.617 90.09 159.25 88.0955L157.934 86.1822V94.2998C157.778 94.2836 157.609 94.2511 157.45 94.2511C157.291 94.2511 157.125 94.2836 156.966 94.2998V82.8266H158.165C159.88 85.4286 161.68 87.9785 163.382 90.6779V82.8266C163.538 82.8591 163.71 82.8753 163.866 82.8753C164.022 82.8753 164.191 82.8591 164.35 82.8266V94.3323V94.3355ZM145.724 111.763C151.954 111.763 153.789 115.586 153.812 118.533C153.835 122.239 150.554 125.396 145.201 125.396C140.37 125.396 137.112 122.924 137.112 118.611C137.112 114.826 140.283 111.766 145.727 111.766L145.724 111.763ZM136.797 109.164C136.654 109.164 136.498 109.197 136.352 109.213V97.7398H137.447C139.019 100.339 140.672 102.888 142.232 105.591V97.7398C142.375 97.7723 142.531 97.7918 142.673 97.7918C142.816 97.7918 142.972 97.7756 143.115 97.7398V109.249L142.173 109.233C140.89 107.069 139.691 105.006 138.441 103.009L137.236 101.099V109.216C137.09 109.2 136.937 109.168 136.791 109.168L136.797 109.164ZM149.963 97.7398C149.94 97.9737 149.908 98.2108 149.908 98.4447C149.908 98.6981 149.94 98.932 149.963 99.1659C149.31 99.0489 148.657 98.932 147.981 98.932V109.249C147.705 109.216 147.429 109.164 147.15 109.164C146.87 109.164 146.594 109.213 146.318 109.249V98.932C145.532 98.932 144.834 99.0489 144.259 99.1659C144.281 98.932 144.314 98.6948 144.314 98.4447C144.314 98.2108 144.281 97.9737 144.259 97.7398H149.963ZM140.724 94.5532C138.054 94.5532 136.255 92.3735 136.255 88.5632C136.255 85.2239 138.006 82.5245 141.017 82.5245C144.46 82.5245 145.474 85.8963 145.487 88.495C145.5 91.7661 143.687 94.5499 140.728 94.5499L140.724 94.5532ZM136.567 123.415C136.521 123.681 136.456 123.967 136.456 124.233C136.456 124.5 136.521 124.786 136.567 125.052H128.28V112.104C128.826 112.143 129.375 112.198 129.92 112.198C130.466 112.198 131.012 112.14 131.561 112.104V123.681C133.464 123.681 135.082 123.548 136.567 123.415ZM129.488 105.672C129.589 106.494 129.677 107.017 130.076 107.602C130.43 108.105 130.849 108.323 131.34 108.323C132.37 108.323 132.922 107.751 133.312 106.293C133.513 105.555 133.513 103.642 133.513 102.82V97.7366C133.656 97.7691 133.812 97.7886 133.955 97.7886C134.098 97.7886 134.254 97.7723 134.4 97.7366V103.71C134.367 105.62 134.377 107.368 133.227 108.576C132.63 109.229 131.866 109.466 131.132 109.466C129.794 109.466 128.342 108.83 127.932 106.647C127.809 105.991 127.757 105.253 127.757 104.584V97.7398C128.033 97.7723 128.312 97.8243 128.589 97.8243C128.865 97.8243 129.144 97.7756 129.42 97.7398V102.505C129.42 103.428 129.397 104.802 129.498 105.676L129.488 105.672ZM164.58 136.879C168.163 137.393 166.526 138.107 166.526 138.107C166.526 138.107 130.814 168.09 129.586 169.113C128.358 170.136 125.493 169.522 125.493 169.522L76.7837 160.313C72.9962 165.838 77.193 172.082 77.193 172.082L78.3852 172.316L80.4252 172.705C80.3309 173.124 80.279 173.54 80.1848 173.92C80.0029 174.352 79.782 174.739 79.5546 175.083L78.7782 174.947C78.7782 174.947 78.7652 174.94 78.7587 174.947C77.3684 174.667 75.7605 174.333 75.7605 174.333C70.0304 168.499 73.3047 157.448 73.3047 157.448L93.4998 146.959C93.987 146.959 94.6172 146.897 95.6502 146.959C97.4043 147.063 98.4081 147.196 99.1552 147.359C99.8471 147.511 100.474 147.713 101.471 148.037C102.413 148.343 102.992 148.336 102.992 148.336C102.992 148.336 103.726 148.525 104.469 147.745C105.217 146.965 104.807 146.121 104.625 145.744C104.457 145.396 103.843 143.344 103.758 142.98C103.683 142.665 103.54 141.947 103.505 141.765L120.581 132.894C120.581 132.894 161.001 136.373 164.584 136.886L164.58 136.879ZM89.7447 174.489C89.683 174.677 89.6245 174.866 89.579 175.054C89.4751 175.489 89.4881 176.344 89.3809 177.097C89.0236 178.981 87.578 181.957 82.1046 182.723L81.4906 179.04L75.1466 179.244C75.1466 179.244 78.4891 177.737 80.1166 175.343L80.1588 175.281C80.1588 175.281 80.1945 175.233 80.1978 175.223C80.1978 175.223 80.201 175.22 80.2043 175.216C80.24 175.148 80.2757 175.09 80.3212 175.012C80.5486 174.619 80.763 174.164 80.9189 173.647C81.2567 171.682 82.0233 169.184 83.8554 168.041C83.9529 167.986 84.0503 167.934 84.1543 167.888L90.8036 169.61L92.4668 170.026L91.8366 170.812C91.6872 171.02 91.5118 171.27 91.3266 171.543C90.7939 172.299 90.3034 173.105 89.9558 173.943C89.8746 174.125 89.7967 174.307 89.7317 174.486H89.7479L89.7447 174.489ZM78.6678 169.425L78.7068 169.431L81.3412 169.922C81.1236 170.376 80.9449 170.851 80.789 171.331L80.162 171.224L80.1101 171.214L78.9277 171.013L78.6645 169.418H78.671L78.6678 169.425ZM78.4696 168.239L78.3494 167.518L78.3235 167.368L82.5171 168.154C82.2995 168.385 82.1013 168.632 81.9226 168.898L80.3537 168.596L78.4696 168.239ZM91.7262 171.861L96.1797 172.692L122.657 177.607C128.381 178.471 129.001 177.555 129.001 177.555V176.789C126.886 177.607 122.862 176.789 122.862 176.789L100.156 172.41L92.3726 170.912C92.5675 170.643 92.7689 170.376 92.9671 170.117L94.3736 170.38L122.657 175.626C128.381 176.49 129.001 175.658 129.001 175.658V174.807C126.886 175.626 122.862 174.807 122.862 174.807L94.653 169.425L87.7437 168.119C86.23 167.68 84.9111 167.294 84.3102 167.131C84.1088 167.076 83.9399 167.138 83.9236 167.131C83.7969 167.19 83.6735 167.258 83.5533 167.326L78.1513 166.303L78.1351 166.196H78.1318L77.9531 165.13H77.9629L96.8911 168.69L122.66 173.446C128.384 174.313 129.004 173.414 129.004 173.414V172.627C126.89 173.446 122.865 172.627 122.865 172.627L77.755 163.941L77.4302 161.986C77.4302 161.986 122.183 170.581 125.73 171.127C129.277 171.672 129.959 170.445 129.959 170.445L163.388 143.837V148.203L129.414 178.358C127.997 179.654 125.73 179.04 125.73 179.04L95.2409 173.79L91.0083 173.073C91.2259 172.66 91.4696 172.257 91.7262 171.864V171.861ZM76.4784 209.763C68.5459 206.693 61.2663 201.996 54.8606 196.753L56.9363 193.82C62.5949 194.161 68.1431 193.635 72.6161 190.818C73.0514 190.383 73.3795 189.405 72.8402 188.86C70.2383 186.02 66.5384 185.251 62.949 184.588L65.5704 180.459C71.869 185.046 78.9309 189.418 86.5386 192.488L84.7909 195.528C78.5898 195.402 72.4927 196.367 67.5876 199.836C68.7051 201.372 70.2578 202.158 71.5604 203.139C74.825 204.838 76.1178 205.043 78.671 205.634L76.4816 209.763H76.4784ZM106.038 216.672C106.042 214.931 105.938 213.19 104.638 211.881C100.724 210.13 96.485 208.814 91.5865 209.561C89.7349 210.101 88.9683 211.728 88.2017 213.362L82.2215 211.387V210.734C87.0226 206.284 91.3916 200.966 94.0195 194.661C98.9148 195.873 104.135 196.539 109.248 197.205C109.011 204.604 111.278 210.922 114.309 216.916C111.587 217.234 108.868 216.899 106.038 216.675V216.672ZM90.8231 177.312L90.0111 177.152C90.024 176.487 89.9916 175.83 90.0825 175.444C90.1507 175.161 90.2352 174.882 90.3326 174.602L95.5008 175.59C109.326 178.198 126.386 181.271 128.563 180.882C130.557 180.524 164.889 148.135 164.889 148.135C170.314 148.34 168.368 149.262 168.368 149.262C168.368 149.262 130.044 184.26 128.767 184.465C127.682 184.637 106.048 180.349 90.8231 177.312ZM139.253 214.232C138.392 211.075 133.572 208.229 132.428 208.171C131.285 208.113 128.933 207.892 127.409 208.324L128.007 216.399L119.984 217.007C120.328 210.481 120.237 203.623 118.077 197.63C125.217 197.081 136.378 194.167 138.109 194.096C139.838 194.021 140.936 194.648 142.021 195.415C143.434 196.613 143.391 198.403 143.313 199.988C143.239 201.574 140.364 204.549 137.638 205.631C140.026 207.814 143.612 209.457 146.217 211.858C144.051 212.998 141.533 213.479 139.246 214.232H139.253ZM154.826 209.461C154.192 202.603 150.619 196.61 145.516 192.569V192.241C152.597 189.324 158.704 185.205 164.918 180.651L168.066 183.925C163.71 185.653 157.743 187.284 156.096 192.394C155.901 193.508 156.638 194.434 158.132 194.346C160.747 193.807 163.252 192.728 165.107 190.338L167.712 193.066C165.097 194.58 161.501 195.551 160.078 198.484C159.357 199.875 159.493 201.168 161.485 201.645C167.143 201.658 171.074 196.665 173.695 192.537C174.455 193.846 175.203 195.723 175.859 197.221C169.427 201.775 162.449 206.54 154.822 209.461H154.826ZM194.225 177.818C188.829 176.704 183.58 177.123 178.425 177.981C177.418 178.588 177.359 179.894 177.759 180.674C179.338 184.338 183.064 186.248 186.37 187.814C185.104 189.392 183.619 190.851 181.927 192.189C178.678 186.924 173.708 181.145 167.481 179.124C169.898 176.184 173.624 173.3 176.274 170.042C181.046 170.474 186.279 170.383 190.502 168.502C189.112 165.497 185.74 162.954 182.518 161.937L185.432 157.708L191.701 163.652L192.204 163.821L192.757 164.354C195.287 166.212 198.042 167.966 201.043 169.084C199.266 172.27 197.262 175.668 194.225 177.818ZM205.984 161.677C201.092 157.074 195.03 154.157 187.822 154.45C191.11 147.534 193.643 140.469 195.433 132.933L199.754 133.693C197.431 137.471 194.4 141.914 195.891 146.998C196.414 148.427 197.912 148.742 198.818 148.028C200.442 146.04 201.573 143.454 201.589 140.54L205.065 141.576C203.821 144.575 200.754 148.268 203.655 151.247C204.285 151.715 204.974 152.127 206.273 151.451C210.031 148.151 210.447 142.073 209.489 137.23L209.512 136.795C211.233 137.207 212.838 137.834 214.316 138.78C212.919 146.852 210.246 154.81 205.981 161.681L205.984 161.677ZM207.868 111.363L196.645 117.6C196.664 116.843 196.677 116.083 196.677 115.323C196.677 74.2672 166.094 40.3608 126.467 35.1245C127.322 36.3848 127.858 37.3593 127.858 37.3593C127.858 37.3593 130.934 43.8885 130.534 49.008C130.209 53.1723 130.645 57.9344 124.85 65.279C120.757 71.269 113.614 75.3262 108.052 79.5003C108.052 79.7277 108.28 79.7277 108.39 79.9518C115.673 76.3234 121.757 71.5093 127.559 67.777C122.884 79.4288 108.949 83.3496 103.709 94.6604L106.756 91.8928C110.502 88.1669 114.822 88.5762 118.571 84.3956C112.431 93.2116 104.713 100.887 104.564 112.663C102.777 103.714 107.89 96.5932 112.665 90.2686C107.903 92.2923 103.138 96.4697 99.6132 100.537C102.793 88.2156 110.645 84.0383 117.343 77.3759L115.248 78.0515C107.763 81.8813 101.241 85.1427 96.014 92.2631C102.849 76.658 127.77 70.8337 128.621 50.5704C128.868 43.2129 126.854 35.6247 121.77 31.194C123.797 34.7119 125.259 39.4708 124.226 44.2231C120.796 56.1024 112.85 63.7815 102.303 69.1868C105.714 64.4409 109.917 59.0161 112.652 53.2503L112.425 53.0229C99.9478 61.7058 86.9089 68.1245 77.2548 78.9676C72.5966 84.3891 68.9552 91.399 66.1064 97.7333C66.9152 91.8473 68.2893 86.1887 70.9075 80.988L70.5696 80.7607C61.6009 89.5702 58.3948 102.807 57.6801 115.261C55.2374 93.7411 67.8638 76.567 84.203 64.9509L85.6777 63.9342C80.1133 69.6935 74.4352 76.3591 71.3557 84.1617L71.5831 84.2754C80.4511 70.7135 87.7924 65.1523 108.316 53.1204L115.387 48.7286C114.919 54.6146 111.782 59.328 108.598 63.736C109.589 63.239 109.589 63.1708 110.365 62.5309C117.694 55.6151 122.836 48.5012 122.696 37.7199C122.696 37.564 122.511 36.2387 122.17 34.6859C120.055 34.5203 117.924 34.4293 115.767 34.4293C71.0829 34.4293 34.8572 70.6518 34.8572 115.339C34.8572 116.126 34.8702 116.905 34.8929 117.685L24.6216 111.383L14.412 117.055C14.4023 116.483 14.3893 115.914 14.3893 115.339C14.3893 59.3507 59.7753 13.9647 115.764 13.9647C171.753 13.9647 217.139 59.3507 217.139 115.339C217.139 115.914 217.126 116.489 217.116 117.061L207.861 111.383L207.868 111.363Z" fill="#231F20"></path><path d="M215.819 201.697C215.819 205.403 212.912 208.311 209.124 208.311C205.337 208.311 202.391 205.403 202.391 201.697C202.391 197.991 205.379 195.161 209.124 195.161C212.87 195.161 215.819 198.069 215.819 201.697ZM204.064 201.697C204.064 204.604 206.217 206.917 209.163 206.917C212.11 206.917 214.146 204.608 214.146 201.736C214.146 198.865 212.035 196.477 209.124 196.477C206.214 196.477 204.064 198.829 204.064 201.697ZM208.088 205.124H206.574V198.588C207.172 198.468 208.01 198.39 209.085 198.39C210.32 198.39 210.879 198.588 211.356 198.868C211.713 199.147 211.993 199.664 211.993 200.304C211.993 201.021 211.434 201.58 210.638 201.817V201.898C211.278 202.139 211.635 202.616 211.834 203.493C212.032 204.491 212.152 204.887 212.311 205.127H210.677C210.479 204.887 210.359 204.289 210.157 203.532C210.037 202.815 209.641 202.496 208.803 202.496H208.085V205.127L208.088 205.124ZM208.13 201.418H208.848C209.686 201.418 210.362 201.138 210.362 200.463C210.362 199.865 209.924 199.465 208.969 199.465C208.569 199.465 208.293 199.504 208.13 199.543V201.418Z" fill="#231F20"></path></g><defs><clipPath id="clip0_3143_17020"><rect width="230" height="230" fill="white" transform="translate(0.5)"></rect></clipPath></defs></svg>