<?xml version="1.0" encoding="UTF-8"?> <svg xmlns="http://www.w3.org/2000/svg" xmlns:xlink="http://www.w3.org/1999/xlink" width="150px" height="151px" viewBox="0 0 150 151" version="1.1"><title>a/Logo/Mark Blue</title><g id="Main-Brand" stroke="none" stroke-width="1" fill="none" fill-rule="evenodd"><g id="Logo" transform="translate(-1087.000000, -895.000000)" fill="#004680"><g id="a/Logo/SBC/Mark-Blue" transform="translate(1087.000000, 895.500000)"><path d="M44.800397,119.11157 L47.9027327,108.294968 L69.8530901,108.294968 L75.0002489,113.442625 L80.1484036,108.294968 L102.097765,108.294968 L105.200101,119.11157 L44.800397,119.11157 Z M47.8907834,49.1399827 L68.5302035,45.7264674 L71.9432209,25.0880431 L78.0567791,25.0880431 L81.4702944,45.7264674 L102.109217,49.1399827 L102.109217,55.2545366 L81.4702944,58.6670561 L78.0567791,98.3163111 L71.9432209,98.3163111 L68.5302035,58.6670561 L47.8907834,55.2545366 L47.8907834,49.1399827 Z M74.9987553,0 C33.5785152,0 0,33.5785152 0,74.9997511 C0,116.420987 33.5785152,149.999502 74.9987553,149.999502 C116.421485,149.999502 150,116.420987 150,74.9997511 C150,33.5785152 116.421485,0 74.9987553,0 L74.9987553,0 Z" id="Fill-8"></path></g></g></g></svg> 